<svg width="955" height="756" viewBox="0 0 955 756" fill="none" xmlns="http://www.w3.org/2000/svg">
<circle cx="100" cy="163" r="13" fill="#484848"/>
<circle cx="100" cy="47.0001" r="13" fill="#484848"/>
<circle cx="100" cy="105" r="13" fill="#484848"/>
<circle cx="100" cy="192" r="13" fill="#484848"/>
<circle cx="100" cy="76.0001" r="13" fill="#484848"/>
<circle cx="100" cy="134" r="13" fill="#484848"/>
<circle cx="245" cy="163" r="13" fill="#484848"/>
<circle cx="245" cy="47.0001" r="13" fill="#484848"/>
<circle cx="245" cy="279" r="13" fill="#484848"/>
<circle cx="245" cy="540" r="13" fill="#484848"/>
<circle cx="245" cy="395" r="13" fill="#484848"/>
<circle cx="245" cy="656" r="13" fill="#484848"/>
<circle cx="245" cy="221" r="13" fill="#484848"/>
<circle cx="245" cy="105" r="13" fill="#484848"/>
<circle cx="245" cy="337" r="13" fill="#484848"/>
<circle cx="245" cy="598" r="13" fill="#484848"/>
<circle cx="245" cy="453" r="13" fill="#484848"/>
<circle cx="245" cy="714" r="13" fill="#484848"/>
<circle cx="245" cy="192" r="13" fill="#484848"/>
<circle cx="245" cy="76.0001" r="13" fill="#484848"/>
<circle cx="245" cy="308" r="13" fill="#484848"/>
<circle cx="245" cy="569" r="13" fill="#484848"/>
<circle cx="245" cy="424" r="13" fill="#484848"/>
<circle cx="245" cy="685" r="13" fill="#484848"/>
<circle cx="245" cy="18.0001" r="13" fill="#484848"/>
<circle cx="245" cy="250" r="13" fill="#484848"/>
<circle cx="245" cy="134" r="13" fill="#484848"/>
<circle cx="245" cy="366" r="13" fill="#484848"/>
<circle cx="245" cy="627" r="13" fill="#484848"/>
<circle cx="245" cy="482" r="13" fill="#484848"/>
<circle cx="245" cy="743" r="13" fill="#484848"/>
<circle cx="245" cy="511" r="13" fill="#484848"/>
<circle cx="42.0001" cy="163" r="13" fill="#484848"/>
<circle cx="42.0001" cy="221" r="13" fill="#484848"/>
<circle cx="42.0001" cy="105" r="13" fill="#484848"/>
<circle cx="42.0001" cy="192" r="13" fill="#484848"/>
<circle cx="42.0001" cy="250" r="13" fill="#484848"/>
<circle cx="42.0001" cy="134" r="13" fill="#484848"/>
<circle cx="158" cy="47.0001" r="13" fill="#484848"/>
<circle cx="158" cy="105" r="13" fill="#484848"/>
<circle cx="158" cy="76.0001" r="13" fill="#484848"/>
<circle cx="158" cy="18.0001" r="13" fill="#484848"/>
<circle cx="158" cy="134" r="13" fill="#484848"/>
<circle cx="303" cy="163" r="13" fill="#484848"/>
<circle cx="303" cy="47.0001" r="13" fill="#484848"/>
<circle cx="303" cy="279" r="13" fill="#484848"/>
<circle cx="303" cy="540" r="13" fill="#484848"/>
<circle cx="303" cy="395" r="13" fill="#484848"/>
<circle cx="303" cy="656" r="13" fill="#484848"/>
<circle cx="303" cy="221" r="13" fill="#484848"/>
<circle cx="303" cy="105" r="13" fill="#484848"/>
<circle cx="303" cy="337" r="13" fill="#484848"/>
<circle cx="303" cy="598" r="13" fill="#484848"/>
<circle cx="303" cy="453" r="13" fill="#484848"/>
<circle cx="303" cy="714" r="13" fill="#484848"/>
<circle cx="303" cy="192" r="13" fill="#484848"/>
<circle cx="303" cy="76.0001" r="13" fill="#484848"/>
<circle cx="303" cy="308" r="13" fill="#484848"/>
<circle cx="303" cy="569" r="13" fill="#484848"/>
<circle cx="303" cy="424" r="13" fill="#484848"/>
<circle cx="303" cy="685" r="13" fill="#484848"/>
<circle cx="303" cy="18.0001" r="13" fill="#484848"/>
<circle cx="303" cy="250" r="13" fill="#484848"/>
<circle cx="303" cy="134" r="13" fill="#484848"/>
<circle cx="303" cy="366" r="13" fill="#484848"/>
<circle cx="303" cy="627" r="13" fill="#484848"/>
<circle cx="303" cy="482" r="13" fill="#484848"/>
<circle cx="303" cy="743" r="13" fill="#484848"/>
<circle cx="303" cy="511" r="13" fill="#484848"/>
<circle cx="13.0001" cy="163" r="13" fill="#484848"/>
<circle cx="13.0001" cy="221" r="13" fill="#484848"/>
<circle cx="13.0001" cy="192" r="13" fill="#484848"/>
<circle cx="13.0001" cy="250" r="13" fill="#484848"/>
<circle cx="13.0001" cy="134" r="13" fill="#484848"/>
<circle cx="129" cy="163" r="13" fill="#484848"/>
<circle cx="129" cy="47.0001" r="13" fill="#484848"/>
<circle cx="129" cy="105" r="13" fill="#484848"/>
<circle cx="129" cy="76.0001" r="13" fill="#484848"/>
<circle cx="129" cy="18.0001" r="13" fill="#484848"/>
<circle cx="129" cy="134" r="13" fill="#484848"/>
<circle cx="274" cy="163" r="13" fill="#484848"/>
<circle cx="274" cy="47.0001" r="13" fill="#484848"/>
<circle cx="274" cy="279" r="13" fill="#484848"/>
<circle cx="274" cy="540" r="13" fill="#484848"/>
<circle cx="274" cy="395" r="13" fill="#484848"/>
<circle cx="274" cy="656" r="13" fill="#484848"/>
<circle cx="274" cy="221" r="13" fill="#484848"/>
<circle cx="274" cy="105" r="13" fill="#484848"/>
<circle cx="274" cy="337" r="13" fill="#484848"/>
<circle cx="274" cy="598" r="13" fill="#484848"/>
<circle cx="274" cy="453" r="13" fill="#484848"/>
<circle cx="274" cy="714" r="13" fill="#484848"/>
<circle cx="274" cy="192" r="13" fill="#484848"/>
<circle cx="274" cy="76.0001" r="13" fill="#484848"/>
<circle cx="274" cy="308" r="13" fill="#484848"/>
<circle cx="274" cy="569" r="13" fill="#484848"/>
<circle cx="274" cy="424" r="13" fill="#484848"/>
<circle cx="274" cy="685" r="13" fill="#484848"/>
<circle cx="274" cy="18.0001" r="13" fill="#484848"/>
<circle cx="274" cy="250" r="13" fill="#484848"/>
<circle cx="274" cy="134" r="13" fill="#484848"/>
<circle cx="274" cy="366" r="13" fill="#484848"/>
<circle cx="274" cy="627" r="13" fill="#484848"/>
<circle cx="274" cy="482" r="13" fill="#484848"/>
<circle cx="274" cy="743" r="13" fill="#484848"/>
<circle cx="274" cy="511" r="13" fill="#484848"/>
<circle cx="71.0001" cy="163" r="13" fill="#484848"/>
<circle cx="71.0001" cy="221" r="13" fill="#484848"/>
<circle cx="71.0001" cy="105" r="13" fill="#484848"/>
<circle cx="71.0001" cy="192" r="13" fill="#484848"/>
<circle cx="71.0001" cy="76.0001" r="13" fill="#484848"/>
<circle cx="71.0001" cy="134" r="13" fill="#484848"/>
<circle cx="216" cy="163" r="13" fill="#484848"/>
<circle cx="216" cy="47.0001" r="13" fill="#484848"/>
<circle cx="216" cy="279" r="13" fill="#484848"/>
<circle cx="216" cy="540" r="13" fill="#484848"/>
<circle cx="216" cy="395" r="13" fill="#484848"/>
<circle cx="216" cy="656" r="13" fill="#484848"/>
<circle cx="216" cy="221" r="13" fill="#484848"/>
<circle cx="216" cy="105" r="13" fill="#484848"/>
<circle cx="216" cy="337" r="13" fill="#484848"/>
<circle cx="216" cy="598" r="13" fill="#484848"/>
<circle cx="216" cy="453" r="13" fill="#484848"/>
<circle cx="216" cy="714" r="13" fill="#484848"/>
<circle cx="216" cy="192" r="13" fill="#484848"/>
<circle cx="216" cy="76.0001" r="13" fill="#484848"/>
<circle cx="216" cy="308" r="13" fill="#484848"/>
<circle cx="216" cy="569" r="13" fill="#484848"/>
<circle cx="216" cy="424" r="13" fill="#484848"/>
<circle cx="216" cy="685" r="13" fill="#484848"/>
<circle cx="216" cy="18.0001" r="13" fill="#484848"/>
<circle cx="216" cy="250" r="13" fill="#484848"/>
<circle cx="216" cy="134" r="13" fill="#484848"/>
<circle cx="216" cy="366" r="13" fill="#484848"/>
<circle cx="216" cy="627" r="13" fill="#484848"/>
<circle cx="216" cy="482" r="13" fill="#484848"/>
<circle cx="216" cy="743" r="13" fill="#484848"/>
<circle cx="216" cy="511" r="13" fill="#484848"/>
<circle cx="187" cy="163" r="13" fill="#484848"/>
<circle cx="187" cy="47.0001" r="13" fill="#484848"/>
<circle cx="187" cy="279" r="13" fill="#484848"/>
<circle cx="187" cy="540" r="13" fill="#484848"/>
<circle cx="187" cy="395" r="13" fill="#484848"/>
<circle cx="187" cy="656" r="13" fill="#484848"/>
<circle cx="187" cy="221" r="13" fill="#484848"/>
<circle cx="187" cy="105" r="13" fill="#484848"/>
<circle cx="187" cy="337" r="13" fill="#484848"/>
<circle cx="187" cy="598" r="13" fill="#484848"/>
<circle cx="187" cy="453" r="13" fill="#484848"/>
<circle cx="187" cy="714" r="13" fill="#484848"/>
<circle cx="187" cy="192" r="13" fill="#484848"/>
<circle cx="187" cy="76.0001" r="13" fill="#484848"/>
<circle cx="187" cy="308" r="13" fill="#484848"/>
<circle cx="187" cy="569" r="13" fill="#484848"/>
<circle cx="187" cy="424" r="13" fill="#484848"/>
<circle cx="187" cy="685" r="13" fill="#484848"/>
<circle cx="187" cy="18.0001" r="13" fill="#484848"/>
<circle cx="187" cy="250" r="13" fill="#484848"/>
<circle cx="187" cy="134" r="13" fill="#484848"/>
<circle cx="187" cy="366" r="13" fill="#484848"/>
<circle cx="187" cy="627" r="13" fill="#484848"/>
<circle cx="187" cy="482" r="13" fill="#484848"/>
<circle cx="187" cy="743" r="13" fill="#484848"/>
<circle cx="187" cy="511" r="13" fill="#484848"/>
<circle cx="332" cy="163" r="13" fill="#484848"/>
<circle cx="332" cy="47.0001" r="13" fill="#484848"/>
<circle cx="332" cy="279" r="13" fill="#484848"/>
<circle cx="332" cy="540" r="13" fill="#484848"/>
<circle cx="332" cy="395" r="13" fill="#484848"/>
<circle cx="332" cy="656" r="13" fill="#484848"/>
<circle cx="332" cy="221" r="13" fill="#484848"/>
<circle cx="332" cy="105" r="13" fill="#484848"/>
<circle cx="332" cy="337" r="13" fill="#484848"/>
<circle cx="332" cy="598" r="13" fill="#484848"/>
<circle cx="332" cy="453" r="13" fill="#484848"/>
<circle cx="332" cy="714" r="13" fill="#484848"/>
<circle cx="332" cy="192" r="13" fill="#484848"/>
<circle cx="332" cy="76.0001" r="13" fill="#484848"/>
<circle cx="332" cy="308" r="13" fill="#484848"/>
<circle cx="332" cy="569" r="13" fill="#484848"/>
<circle cx="332" cy="424" r="13" fill="#484848"/>
<circle cx="332" cy="685" r="13" fill="#484848"/>
<circle cx="332" cy="18.0001" r="13" fill="#484848"/>
<circle cx="332" cy="250" r="13" fill="#484848"/>
<circle cx="332" cy="134" r="13" fill="#484848"/>
<circle cx="332" cy="366" r="13" fill="#484848"/>
<circle cx="332" cy="627" r="13" fill="#484848"/>
<circle cx="332" cy="482" r="13" fill="#484848"/>
<circle cx="332" cy="743" r="13" fill="#484848"/>
<circle cx="332" cy="511" r="13" fill="#484848"/>
<circle cx="478" cy="158" r="13" fill="#484848"/>
<circle cx="478" cy="42.0001" r="13" fill="#484848"/>
<circle cx="478" cy="274" r="13" fill="#484848"/>
<circle cx="478" cy="535" r="13" fill="#484848"/>
<circle cx="478" cy="390" r="13" fill="#484848"/>
<circle cx="478" cy="651" r="13" fill="#484848"/>
<circle cx="478" cy="216" r="13" fill="#484848"/>
<circle cx="478" cy="100" r="13" fill="#484848"/>
<circle cx="478" cy="332" r="13" fill="#484848"/>
<circle cx="478" cy="593" r="13" fill="#484848"/>
<circle cx="478" cy="187" r="13" fill="#484848"/>
<circle cx="478" cy="71.0001" r="13" fill="#484848"/>
<circle cx="478" cy="303" r="13" fill="#484848"/>
<circle cx="478" cy="564" r="13" fill="#484848"/>
<circle cx="478" cy="419" r="13" fill="#484848"/>
<circle cx="478" cy="13.0001" r="13" fill="#484848"/>
<circle cx="478" cy="245" r="13" fill="#484848"/>
<circle cx="478" cy="129" r="13" fill="#484848"/>
<circle cx="478" cy="361" r="13" fill="#484848"/>
<circle cx="478" cy="622" r="13" fill="#484848"/>
<circle cx="594" cy="42.0001" r="13" fill="#484848"/>
<circle cx="913" cy="42.0001" r="13" fill="#484848"/>
<circle cx="594" cy="535" r="13" fill="#484848"/>
<circle cx="913" cy="535" r="13" fill="#484848"/>
<circle cx="594" cy="390" r="13" fill="#484848"/>
<circle cx="594" cy="651" r="13" fill="#484848"/>
<circle cx="913" cy="390" r="13" fill="#484848"/>
<circle cx="913" cy="651" r="13" fill="#484848"/>
<circle cx="594" cy="100" r="13" fill="#484848"/>
<circle cx="913" cy="100" r="13" fill="#484848"/>
<circle cx="594" cy="332" r="13" fill="#484848"/>
<circle cx="594" cy="593" r="13" fill="#484848"/>
<circle cx="913" cy="332" r="13" fill="#484848"/>
<circle cx="913" cy="593" r="13" fill="#484848"/>
<circle cx="594" cy="709" r="13" fill="#484848"/>
<circle cx="913" cy="448" r="13" fill="#484848"/>
<circle cx="594" cy="71.0001" r="13" fill="#484848"/>
<circle cx="913" cy="71.0001" r="13" fill="#484848"/>
<circle cx="594" cy="303" r="13" fill="#484848"/>
<circle cx="594" cy="564" r="13" fill="#484848"/>
<circle cx="913" cy="564" r="13" fill="#484848"/>
<circle cx="594" cy="419" r="13" fill="#484848"/>
<circle cx="594" cy="680" r="13" fill="#484848"/>
<circle cx="913" cy="419" r="13" fill="#484848"/>
<circle cx="594" cy="13.0001" r="13" fill="#484848"/>
<circle cx="913" cy="13.0001" r="13" fill="#484848"/>
<circle cx="594" cy="129" r="13" fill="#484848"/>
<circle cx="913" cy="129" r="13" fill="#484848"/>
<circle cx="594" cy="361" r="13" fill="#484848"/>
<circle cx="594" cy="622" r="13" fill="#484848"/>
<circle cx="913" cy="361" r="13" fill="#484848"/>
<circle cx="913" cy="622" r="13" fill="#484848"/>
<circle cx="594" cy="738" r="13" fill="#484848"/>
<circle cx="913" cy="477" r="13" fill="#484848"/>
<circle cx="913" cy="506" r="13" fill="#484848"/>
<circle cx="739" cy="42.0001" r="13" fill="#484848"/>
<circle cx="739" cy="274" r="13" fill="#484848"/>
<circle cx="739" cy="390" r="13" fill="#484848"/>
<circle cx="739" cy="651" r="13" fill="#484848"/>
<circle cx="739" cy="100" r="13" fill="#484848"/>
<circle cx="739" cy="332" r="13" fill="#484848"/>
<circle cx="739" cy="709" r="13" fill="#484848"/>
<circle cx="739" cy="71.0001" r="13" fill="#484848"/>
<circle cx="739" cy="303" r="13" fill="#484848"/>
<circle cx="739" cy="680" r="13" fill="#484848"/>
<circle cx="739" cy="13.0001" r="13" fill="#484848"/>
<circle cx="739" cy="129" r="13" fill="#484848"/>
<circle cx="739" cy="361" r="13" fill="#484848"/>
<circle cx="739" cy="622" r="13" fill="#484848"/>
<circle cx="739" cy="738" r="13" fill="#484848"/>
<circle cx="536" cy="158" r="13" fill="#484848"/>
<circle cx="536" cy="42.0001" r="13" fill="#484848"/>
<circle cx="855" cy="42.0001" r="13" fill="#484848"/>
<circle cx="536" cy="274" r="13" fill="#484848"/>
<circle cx="536" cy="535" r="13" fill="#484848"/>
<circle cx="855" cy="274" r="13" fill="#484848"/>
<circle cx="855" cy="535" r="13" fill="#484848"/>
<circle cx="536" cy="390" r="13" fill="#484848"/>
<circle cx="536" cy="651" r="13" fill="#484848"/>
<circle cx="855" cy="390" r="13" fill="#484848"/>
<circle cx="855" cy="651" r="13" fill="#484848"/>
<circle cx="536" cy="216" r="13" fill="#484848"/>
<circle cx="536" cy="100" r="13" fill="#484848"/>
<circle cx="855" cy="100" r="13" fill="#484848"/>
<circle cx="536" cy="332" r="13" fill="#484848"/>
<circle cx="536" cy="593" r="13" fill="#484848"/>
<circle cx="855" cy="332" r="13" fill="#484848"/>
<circle cx="855" cy="593" r="13" fill="#484848"/>
<circle cx="536" cy="709" r="13" fill="#484848"/>
<circle cx="855" cy="448" r="13" fill="#484848"/>
<circle cx="855" cy="709" r="13" fill="#484848"/>
<circle cx="536" cy="187" r="13" fill="#484848"/>
<circle cx="536" cy="71.0001" r="13" fill="#484848"/>
<circle cx="855" cy="71.0001" r="13" fill="#484848"/>
<circle cx="536" cy="303" r="13" fill="#484848"/>
<circle cx="536" cy="564" r="13" fill="#484848"/>
<circle cx="855" cy="303" r="13" fill="#484848"/>
<circle cx="855" cy="564" r="13" fill="#484848"/>
<circle cx="536" cy="419" r="13" fill="#484848"/>
<circle cx="536" cy="680" r="13" fill="#484848"/>
<circle cx="855" cy="419" r="13" fill="#484848"/>
<circle cx="855" cy="680" r="13" fill="#484848"/>
<circle cx="536" cy="13.0001" r="13" fill="#484848"/>
<circle cx="855" cy="13.0001" r="13" fill="#484848"/>
<circle cx="536" cy="245" r="13" fill="#484848"/>
<circle cx="536" cy="129" r="13" fill="#484848"/>
<circle cx="855" cy="129" r="13" fill="#484848"/>
<circle cx="536" cy="361" r="13" fill="#484848"/>
<circle cx="536" cy="622" r="13" fill="#484848"/>
<circle cx="855" cy="361" r="13" fill="#484848"/>
<circle cx="855" cy="622" r="13" fill="#484848"/>
<circle cx="855" cy="477" r="13" fill="#484848"/>
<circle cx="855" cy="506" r="13" fill="#484848"/>
<circle cx="652" cy="42.0001" r="13" fill="#484848"/>
<circle cx="652" cy="274" r="13" fill="#484848"/>
<circle cx="652" cy="390" r="13" fill="#484848"/>
<circle cx="652" cy="651" r="13" fill="#484848"/>
<circle cx="652" cy="100" r="13" fill="#484848"/>
<circle cx="652" cy="332" r="13" fill="#484848"/>
<circle cx="652" cy="709" r="13" fill="#484848"/>
<circle cx="652" cy="71.0001" r="13" fill="#484848"/>
<circle cx="652" cy="303" r="13" fill="#484848"/>
<circle cx="652" cy="680" r="13" fill="#484848"/>
<circle cx="652" cy="13.0001" r="13" fill="#484848"/>
<circle cx="652" cy="129" r="13" fill="#484848"/>
<circle cx="652" cy="361" r="13" fill="#484848"/>
<circle cx="652" cy="622" r="13" fill="#484848"/>
<circle cx="652" cy="738" r="13" fill="#484848"/>
<circle cx="797" cy="42.0001" r="13" fill="#484848"/>
<circle cx="797" cy="274" r="13" fill="#484848"/>
<circle cx="797" cy="390" r="13" fill="#484848"/>
<circle cx="797" cy="651" r="13" fill="#484848"/>
<circle cx="797" cy="100" r="13" fill="#484848"/>
<circle cx="797" cy="332" r="13" fill="#484848"/>
<circle cx="797" cy="709" r="13" fill="#484848"/>
<circle cx="797" cy="71.0001" r="13" fill="#484848"/>
<circle cx="797" cy="303" r="13" fill="#484848"/>
<circle cx="797" cy="680" r="13" fill="#484848"/>
<circle cx="797" cy="13.0001" r="13" fill="#484848"/>
<circle cx="797" cy="129" r="13" fill="#484848"/>
<circle cx="797" cy="361" r="13" fill="#484848"/>
<circle cx="797" cy="622" r="13" fill="#484848"/>
<circle cx="797" cy="738" r="13" fill="#484848"/>
<circle cx="507" cy="158" r="13" fill="#484848"/>
<circle cx="507" cy="42.0001" r="13" fill="#484848"/>
<circle cx="507" cy="274" r="13" fill="#484848"/>
<circle cx="507" cy="535" r="13" fill="#484848"/>
<circle cx="507" cy="390" r="13" fill="#484848"/>
<circle cx="507" cy="651" r="13" fill="#484848"/>
<circle cx="507" cy="216" r="13" fill="#484848"/>
<circle cx="507" cy="100" r="13" fill="#484848"/>
<circle cx="507" cy="332" r="13" fill="#484848"/>
<circle cx="507" cy="593" r="13" fill="#484848"/>
<circle cx="507" cy="187" r="13" fill="#484848"/>
<circle cx="507" cy="71.0001" r="13" fill="#484848"/>
<circle cx="507" cy="303" r="13" fill="#484848"/>
<circle cx="507" cy="564" r="13" fill="#484848"/>
<circle cx="507" cy="419" r="13" fill="#484848"/>
<circle cx="507" cy="680" r="13" fill="#484848"/>
<circle cx="507" cy="13.0001" r="13" fill="#484848"/>
<circle cx="507" cy="245" r="13" fill="#484848"/>
<circle cx="507" cy="129" r="13" fill="#484848"/>
<circle cx="507" cy="361" r="13" fill="#484848"/>
<circle cx="507" cy="622" r="13" fill="#484848"/>
<circle cx="623" cy="42.0001" r="13" fill="#484848"/>
<circle cx="942" cy="42.0001" r="13" fill="#484848"/>
<circle cx="623" cy="274" r="13" fill="#484848"/>
<circle cx="942" cy="535" r="13" fill="#484848"/>
<circle cx="623" cy="390" r="13" fill="#484848"/>
<circle cx="623" cy="651" r="13" fill="#484848"/>
<circle cx="942" cy="390" r="13" fill="#484848"/>
<circle cx="623" cy="100" r="13" fill="#484848"/>
<circle cx="942" cy="100" r="13" fill="#484848"/>
<circle cx="623" cy="332" r="13" fill="#484848"/>
<circle cx="942" cy="593" r="13" fill="#484848"/>
<circle cx="623" cy="709" r="13" fill="#484848"/>
<circle cx="942" cy="448" r="13" fill="#484848"/>
<circle cx="623" cy="71.0001" r="13" fill="#484848"/>
<circle cx="942" cy="71.0001" r="13" fill="#484848"/>
<circle cx="623" cy="303" r="13" fill="#484848"/>
<circle cx="942" cy="564" r="13" fill="#484848"/>
<circle cx="623" cy="680" r="13" fill="#484848"/>
<circle cx="942" cy="419" r="13" fill="#484848"/>
<circle cx="623" cy="13.0001" r="13" fill="#484848"/>
<circle cx="942" cy="13.0001" r="13" fill="#484848"/>
<circle cx="623" cy="129" r="13" fill="#484848"/>
<circle cx="942" cy="129" r="13" fill="#484848"/>
<circle cx="623" cy="361" r="13" fill="#484848"/>
<circle cx="623" cy="622" r="13" fill="#484848"/>
<circle cx="942" cy="361" r="13" fill="#484848"/>
<circle cx="942" cy="622" r="13" fill="#484848"/>
<circle cx="623" cy="738" r="13" fill="#484848"/>
<circle cx="942" cy="477" r="13" fill="#484848"/>
<circle cx="942" cy="506" r="13" fill="#484848"/>
<circle cx="768" cy="42.0001" r="13" fill="#484848"/>
<circle cx="768" cy="274" r="13" fill="#484848"/>
<circle cx="768" cy="390" r="13" fill="#484848"/>
<circle cx="768" cy="651" r="13" fill="#484848"/>
<circle cx="768" cy="100" r="13" fill="#484848"/>
<circle cx="768" cy="332" r="13" fill="#484848"/>
<circle cx="768" cy="709" r="13" fill="#484848"/>
<circle cx="768" cy="71.0001" r="13" fill="#484848"/>
<circle cx="768" cy="303" r="13" fill="#484848"/>
<circle cx="768" cy="680" r="13" fill="#484848"/>
<circle cx="768" cy="13.0001" r="13" fill="#484848"/>
<circle cx="768" cy="129" r="13" fill="#484848"/>
<circle cx="768" cy="361" r="13" fill="#484848"/>
<circle cx="768" cy="622" r="13" fill="#484848"/>
<circle cx="768" cy="738" r="13" fill="#484848"/>
<circle cx="565" cy="158" r="13" fill="#484848"/>
<circle cx="565" cy="42.0001" r="13" fill="#484848"/>
<circle cx="884" cy="42.0001" r="13" fill="#484848"/>
<circle cx="565" cy="274" r="13" fill="#484848"/>
<circle cx="565" cy="535" r="13" fill="#484848"/>
<circle cx="884" cy="535" r="13" fill="#484848"/>
<circle cx="565" cy="390" r="13" fill="#484848"/>
<circle cx="565" cy="651" r="13" fill="#484848"/>
<circle cx="884" cy="390" r="13" fill="#484848"/>
<circle cx="884" cy="651" r="13" fill="#484848"/>
<circle cx="565" cy="216" r="13" fill="#484848"/>
<circle cx="565" cy="100" r="13" fill="#484848"/>
<circle cx="884" cy="100" r="13" fill="#484848"/>
<circle cx="565" cy="332" r="13" fill="#484848"/>
<circle cx="565" cy="593" r="13" fill="#484848"/>
<circle cx="884" cy="332" r="13" fill="#484848"/>
<circle cx="884" cy="593" r="13" fill="#484848"/>
<circle cx="565" cy="709" r="13" fill="#484848"/>
<circle cx="884" cy="448" r="13" fill="#484848"/>
<circle cx="565" cy="187" r="13" fill="#484848"/>
<circle cx="565" cy="71.0001" r="13" fill="#484848"/>
<circle cx="884" cy="71.0001" r="13" fill="#484848"/>
<circle cx="565" cy="303" r="13" fill="#484848"/>
<circle cx="565" cy="564" r="13" fill="#484848"/>
<circle cx="884" cy="303" r="13" fill="#484848"/>
<circle cx="884" cy="564" r="13" fill="#484848"/>
<circle cx="565" cy="419" r="13" fill="#484848"/>
<circle cx="565" cy="680" r="13" fill="#484848"/>
<circle cx="884" cy="419" r="13" fill="#484848"/>
<circle cx="884" cy="680" r="13" fill="#484848"/>
<circle cx="565" cy="13.0001" r="13" fill="#484848"/>
<circle cx="884" cy="13.0001" r="13" fill="#484848"/>
<circle cx="565" cy="245" r="13" fill="#484848"/>
<circle cx="565" cy="129" r="13" fill="#484848"/>
<circle cx="884" cy="129" r="13" fill="#484848"/>
<circle cx="565" cy="361" r="13" fill="#484848"/>
<circle cx="565" cy="622" r="13" fill="#484848"/>
<circle cx="884" cy="361" r="13" fill="#484848"/>
<circle cx="884" cy="622" r="13" fill="#484848"/>
<circle cx="565" cy="738" r="13" fill="#484848"/>
<circle cx="884" cy="477" r="13" fill="#484848"/>
<circle cx="884" cy="506" r="13" fill="#484848"/>
<circle cx="710" cy="42.0001" r="13" fill="#484848"/>
<circle cx="710" cy="274" r="13" fill="#484848"/>
<circle cx="710" cy="390" r="13" fill="#484848"/>
<circle cx="710" cy="651" r="13" fill="#484848"/>
<circle cx="710" cy="100" r="13" fill="#484848"/>
<circle cx="710" cy="332" r="13" fill="#484848"/>
<circle cx="710" cy="709" r="13" fill="#484848"/>
<circle cx="710" cy="71.0001" r="13" fill="#484848"/>
<circle cx="710" cy="303" r="13" fill="#484848"/>
<circle cx="710" cy="680" r="13" fill="#484848"/>
<circle cx="710" cy="13.0001" r="13" fill="#484848"/>
<circle cx="710" cy="129" r="13" fill="#484848"/>
<circle cx="710" cy="361" r="13" fill="#484848"/>
<circle cx="710" cy="622" r="13" fill="#484848"/>
<circle cx="710" cy="738" r="13" fill="#484848"/>
<circle cx="449" cy="158" r="13" fill="#484848"/>
<circle cx="449" cy="42.0001" r="13" fill="#484848"/>
<circle cx="449" cy="274" r="13" fill="#484848"/>
<circle cx="449" cy="535" r="13" fill="#484848"/>
<circle cx="449" cy="390" r="13" fill="#484848"/>
<circle cx="449" cy="216" r="13" fill="#484848"/>
<circle cx="449" cy="100" r="13" fill="#484848"/>
<circle cx="449" cy="332" r="13" fill="#484848"/>
<circle cx="449" cy="593" r="13" fill="#484848"/>
<circle cx="449" cy="187" r="13" fill="#484848"/>
<circle cx="449" cy="71.0001" r="13" fill="#484848"/>
<circle cx="449" cy="303" r="13" fill="#484848"/>
<circle cx="449" cy="564" r="13" fill="#484848"/>
<circle cx="449" cy="419" r="13" fill="#484848"/>
<circle cx="449" cy="13.0001" r="13" fill="#484848"/>
<circle cx="449" cy="245" r="13" fill="#484848"/>
<circle cx="449" cy="129" r="13" fill="#484848"/>
<circle cx="449" cy="361" r="13" fill="#484848"/>
<circle cx="449" cy="622" r="13" fill="#484848"/>
<circle cx="681" cy="42.0001" r="13" fill="#484848"/>
<circle cx="681" cy="274" r="13" fill="#484848"/>
<circle cx="681" cy="390" r="13" fill="#484848"/>
<circle cx="681" cy="651" r="13" fill="#484848"/>
<circle cx="681" cy="100" r="13" fill="#484848"/>
<circle cx="681" cy="332" r="13" fill="#484848"/>
<circle cx="681" cy="709" r="13" fill="#484848"/>
<circle cx="681" cy="71.0001" r="13" fill="#484848"/>
<circle cx="681" cy="303" r="13" fill="#484848"/>
<circle cx="681" cy="680" r="13" fill="#484848"/>
<circle cx="681" cy="13.0001" r="13" fill="#484848"/>
<circle cx="681" cy="129" r="13" fill="#484848"/>
<circle cx="681" cy="361" r="13" fill="#484848"/>
<circle cx="681" cy="622" r="13" fill="#484848"/>
<circle cx="681" cy="738" r="13" fill="#484848"/>
<circle cx="826" cy="42.0001" r="13" fill="#484848"/>
<circle cx="826" cy="274" r="13" fill="#484848"/>
<circle cx="826" cy="535" r="13" fill="#484848"/>
<circle cx="826" cy="390" r="13" fill="#484848"/>
<circle cx="826" cy="651" r="13" fill="#484848"/>
<circle cx="826" cy="100" r="13" fill="#484848"/>
<circle cx="826" cy="332" r="13" fill="#484848"/>
<circle cx="826" cy="593" r="13" fill="#484848"/>
<circle cx="826" cy="448" r="13" fill="#484848"/>
<circle cx="826" cy="709" r="13" fill="#484848"/>
<circle cx="826" cy="71.0001" r="13" fill="#484848"/>
<circle cx="826" cy="303" r="13" fill="#484848"/>
<circle cx="826" cy="564" r="13" fill="#484848"/>
<circle cx="826" cy="419" r="13" fill="#484848"/>
<circle cx="826" cy="680" r="13" fill="#484848"/>
<circle cx="826" cy="13.0001" r="13" fill="#484848"/>
<circle cx="826" cy="129" r="13" fill="#484848"/>
<circle cx="826" cy="361" r="13" fill="#484848"/>
<circle cx="826" cy="622" r="13" fill="#484848"/>
<circle cx="826" cy="477" r="13" fill="#484848"/>
<circle cx="826" cy="738" r="13" fill="#484848"/>
<circle cx="826" cy="506" r="13" fill="#484848"/>
</svg>
