<svg width="932" height="751" viewBox="0 0 932 751" fill="none" xmlns="http://www.w3.org/2000/svg">
<circle cx="100" cy="158" r="13" fill="#484848"/>
<circle cx="100" cy="42" r="13" fill="#484848"/>
<circle cx="100" cy="100" r="13" fill="#484848"/>
<circle cx="100" cy="187" r="13" fill="#484848"/>
<circle cx="100" cy="71" r="13" fill="#484848"/>
<circle cx="100" cy="129" r="13" fill="#484848"/>
<circle cx="245" cy="158" r="13" fill="#484848"/>
<circle cx="245" cy="42" r="13" fill="#484848"/>
<circle cx="245" cy="274" r="13" fill="#484848"/>
<circle cx="245" cy="535" r="13" fill="#484848"/>
<circle cx="245" cy="390" r="13" fill="#484848"/>
<circle cx="245" cy="651" r="13" fill="#484848"/>
<circle cx="245" cy="216" r="13" fill="#484848"/>
<circle cx="245" cy="100" r="13" fill="#484848"/>
<circle cx="245" cy="332" r="13" fill="#484848"/>
<circle cx="245" cy="593" r="13" fill="#484848"/>
<circle cx="245" cy="448" r="13" fill="#484848"/>
<circle cx="245" cy="709" r="13" fill="#484848"/>
<circle cx="245" cy="187" r="13" fill="#484848"/>
<circle cx="245" cy="71" r="13" fill="#484848"/>
<circle cx="245" cy="303" r="13" fill="#484848"/>
<circle cx="245" cy="564" r="13" fill="#484848"/>
<circle cx="245" cy="419" r="13" fill="#484848"/>
<circle cx="245" cy="680" r="13" fill="#484848"/>
<circle cx="245" cy="13.0001" r="13" fill="#484848"/>
<circle cx="245" cy="245" r="13" fill="#484848"/>
<circle cx="245" cy="129" r="13" fill="#484848"/>
<circle cx="245" cy="361" r="13" fill="#484848"/>
<circle cx="245" cy="622" r="13" fill="#484848"/>
<circle cx="245" cy="477" r="13" fill="#484848"/>
<circle cx="245" cy="738" r="13" fill="#484848"/>
<circle cx="245" cy="506" r="13" fill="#484848"/>
<circle cx="42.0001" cy="158" r="13" fill="#484848"/>
<circle cx="42.0001" cy="216" r="13" fill="#484848"/>
<circle cx="42.0001" cy="100" r="13" fill="#484848"/>
<circle cx="42.0001" cy="187" r="13" fill="#484848"/>
<circle cx="42.0001" cy="245" r="13" fill="#484848"/>
<circle cx="42.0001" cy="129" r="13" fill="#484848"/>
<circle cx="158" cy="42" r="13" fill="#484848"/>
<circle cx="158" cy="100" r="13" fill="#484848"/>
<circle cx="158" cy="71" r="13" fill="#484848"/>
<circle cx="158" cy="13.0001" r="13" fill="#484848"/>
<circle cx="158" cy="129" r="13" fill="#484848"/>
<circle cx="303" cy="158" r="13" fill="#484848"/>
<circle cx="303" cy="42" r="13" fill="#484848"/>
<circle cx="303" cy="274" r="13" fill="#484848"/>
<circle cx="303" cy="535" r="13" fill="#484848"/>
<circle cx="303" cy="390" r="13" fill="#484848"/>
<circle cx="303" cy="651" r="13" fill="#484848"/>
<circle cx="303" cy="216" r="13" fill="#484848"/>
<circle cx="303" cy="100" r="13" fill="#484848"/>
<circle cx="303" cy="332" r="13" fill="#484848"/>
<circle cx="303" cy="593" r="13" fill="#484848"/>
<circle cx="303" cy="448" r="13" fill="#484848"/>
<circle cx="303" cy="709" r="13" fill="#484848"/>
<circle cx="303" cy="187" r="13" fill="#484848"/>
<circle cx="303" cy="71" r="13" fill="#484848"/>
<circle cx="303" cy="303" r="13" fill="#484848"/>
<circle cx="303" cy="564" r="13" fill="#484848"/>
<circle cx="303" cy="419" r="13" fill="#484848"/>
<circle cx="303" cy="680" r="13" fill="#484848"/>
<circle cx="303" cy="13.0001" r="13" fill="#484848"/>
<circle cx="303" cy="245" r="13" fill="#484848"/>
<circle cx="303" cy="129" r="13" fill="#484848"/>
<circle cx="303" cy="361" r="13" fill="#484848"/>
<circle cx="303" cy="622" r="13" fill="#484848"/>
<circle cx="303" cy="477" r="13" fill="#484848"/>
<circle cx="303" cy="738" r="13" fill="#484848"/>
<circle cx="303" cy="506" r="13" fill="#484848"/>
<circle cx="13.0001" cy="158" r="13" fill="#484848"/>
<circle cx="13.0001" cy="216" r="13" fill="#484848"/>
<circle cx="13.0001" cy="187" r="13" fill="#484848"/>
<circle cx="13.0001" cy="245" r="13" fill="#484848"/>
<circle cx="13.0001" cy="129" r="13" fill="#484848"/>
<circle cx="129" cy="158" r="13" fill="#484848"/>
<circle cx="129" cy="42" r="13" fill="#484848"/>
<circle cx="129" cy="100" r="13" fill="#484848"/>
<circle cx="129" cy="71" r="13" fill="#484848"/>
<circle cx="129" cy="13.0001" r="13" fill="#484848"/>
<circle cx="129" cy="129" r="13" fill="#484848"/>
<circle cx="274" cy="158" r="13" fill="#484848"/>
<circle cx="274" cy="42" r="13" fill="#484848"/>
<circle cx="274" cy="274" r="13" fill="#484848"/>
<circle cx="274" cy="535" r="13" fill="#484848"/>
<circle cx="274" cy="390" r="13" fill="#484848"/>
<circle cx="274" cy="651" r="13" fill="#484848"/>
<circle cx="274" cy="216" r="13" fill="#484848"/>
<circle cx="274" cy="100" r="13" fill="#484848"/>
<circle cx="274" cy="332" r="13" fill="#484848"/>
<circle cx="274" cy="593" r="13" fill="#484848"/>
<circle cx="274" cy="448" r="13" fill="#484848"/>
<circle cx="274" cy="709" r="13" fill="#484848"/>
<circle cx="274" cy="187" r="13" fill="#484848"/>
<circle cx="274" cy="71" r="13" fill="#484848"/>
<circle cx="274" cy="303" r="13" fill="#484848"/>
<circle cx="274" cy="564" r="13" fill="#484848"/>
<circle cx="274" cy="419" r="13" fill="#484848"/>
<circle cx="274" cy="680" r="13" fill="#484848"/>
<circle cx="274" cy="13.0001" r="13" fill="#484848"/>
<circle cx="274" cy="245" r="13" fill="#484848"/>
<circle cx="274" cy="129" r="13" fill="#484848"/>
<circle cx="274" cy="361" r="13" fill="#484848"/>
<circle cx="274" cy="622" r="13" fill="#484848"/>
<circle cx="274" cy="477" r="13" fill="#484848"/>
<circle cx="274" cy="738" r="13" fill="#484848"/>
<circle cx="274" cy="506" r="13" fill="#484848"/>
<circle cx="71.0001" cy="158" r="13" fill="#484848"/>
<circle cx="71.0001" cy="216" r="13" fill="#484848"/>
<circle cx="71.0001" cy="100" r="13" fill="#484848"/>
<circle cx="71.0001" cy="187" r="13" fill="#484848"/>
<circle cx="71.0001" cy="71" r="13" fill="#484848"/>
<circle cx="71.0001" cy="129" r="13" fill="#484848"/>
<circle cx="216" cy="158" r="13" fill="#484848"/>
<circle cx="216" cy="42" r="13" fill="#484848"/>
<circle cx="216" cy="274" r="13" fill="#484848"/>
<circle cx="216" cy="535" r="13" fill="#484848"/>
<circle cx="216" cy="390" r="13" fill="#484848"/>
<circle cx="216" cy="651" r="13" fill="#484848"/>
<circle cx="216" cy="216" r="13" fill="#484848"/>
<circle cx="216" cy="100" r="13" fill="#484848"/>
<circle cx="216" cy="332" r="13" fill="#484848"/>
<circle cx="216" cy="593" r="13" fill="#484848"/>
<circle cx="216" cy="448" r="13" fill="#484848"/>
<circle cx="216" cy="709" r="13" fill="#484848"/>
<circle cx="216" cy="187" r="13" fill="#484848"/>
<circle cx="216" cy="71" r="13" fill="#484848"/>
<circle cx="216" cy="303" r="13" fill="#484848"/>
<circle cx="216" cy="564" r="13" fill="#484848"/>
<circle cx="216" cy="419" r="13" fill="#484848"/>
<circle cx="216" cy="680" r="13" fill="#484848"/>
<circle cx="216" cy="13.0001" r="13" fill="#484848"/>
<circle cx="216" cy="245" r="13" fill="#484848"/>
<circle cx="216" cy="129" r="13" fill="#484848"/>
<circle cx="216" cy="361" r="13" fill="#484848"/>
<circle cx="216" cy="622" r="13" fill="#484848"/>
<circle cx="216" cy="477" r="13" fill="#484848"/>
<circle cx="216" cy="738" r="13" fill="#484848"/>
<circle cx="216" cy="506" r="13" fill="#484848"/>
<circle cx="187" cy="158" r="13" fill="#484848"/>
<circle cx="187" cy="42" r="13" fill="#484848"/>
<circle cx="187" cy="274" r="13" fill="#484848"/>
<circle cx="187" cy="535" r="13" fill="#484848"/>
<circle cx="187" cy="390" r="13" fill="#484848"/>
<circle cx="187" cy="651" r="13" fill="#484848"/>
<circle cx="187" cy="216" r="13" fill="#484848"/>
<circle cx="187" cy="100" r="13" fill="#484848"/>
<circle cx="187" cy="332" r="13" fill="#484848"/>
<circle cx="187" cy="593" r="13" fill="#484848"/>
<circle cx="187" cy="448" r="13" fill="#484848"/>
<circle cx="187" cy="709" r="13" fill="#484848"/>
<circle cx="187" cy="187" r="13" fill="#484848"/>
<circle cx="187" cy="71" r="13" fill="#484848"/>
<circle cx="187" cy="303" r="13" fill="#484848"/>
<circle cx="187" cy="564" r="13" fill="#484848"/>
<circle cx="187" cy="419" r="13" fill="#484848"/>
<circle cx="187" cy="680" r="13" fill="#484848"/>
<circle cx="187" cy="13.0001" r="13" fill="#484848"/>
<circle cx="187" cy="245" r="13" fill="#484848"/>
<circle cx="187" cy="129" r="13" fill="#484848"/>
<circle cx="187" cy="361" r="13" fill="#484848"/>
<circle cx="187" cy="622" r="13" fill="#484848"/>
<circle cx="187" cy="477" r="13" fill="#484848"/>
<circle cx="187" cy="738" r="13" fill="#484848"/>
<circle cx="187" cy="506" r="13" fill="#484848"/>
<circle cx="332" cy="158" r="13" fill="#484848"/>
<circle cx="332" cy="42" r="13" fill="#484848"/>
<circle cx="332" cy="274" r="13" fill="#484848"/>
<circle cx="332" cy="535" r="13" fill="#484848"/>
<circle cx="332" cy="390" r="13" fill="#484848"/>
<circle cx="332" cy="651" r="13" fill="#484848"/>
<circle cx="332" cy="216" r="13" fill="#484848"/>
<circle cx="332" cy="100" r="13" fill="#484848"/>
<circle cx="332" cy="332" r="13" fill="#484848"/>
<circle cx="332" cy="593" r="13" fill="#484848"/>
<circle cx="332" cy="448" r="13" fill="#484848"/>
<circle cx="332" cy="709" r="13" fill="#484848"/>
<circle cx="332" cy="187" r="13" fill="#484848"/>
<circle cx="332" cy="71" r="13" fill="#484848"/>
<circle cx="332" cy="303" r="13" fill="#484848"/>
<circle cx="332" cy="564" r="13" fill="#484848"/>
<circle cx="332" cy="419" r="13" fill="#484848"/>
<circle cx="332" cy="680" r="13" fill="#484848"/>
<circle cx="332" cy="13.0001" r="13" fill="#484848"/>
<circle cx="332" cy="245" r="13" fill="#484848"/>
<circle cx="332" cy="129" r="13" fill="#484848"/>
<circle cx="332" cy="361" r="13" fill="#484848"/>
<circle cx="332" cy="622" r="13" fill="#484848"/>
<circle cx="332" cy="477" r="13" fill="#484848"/>
<circle cx="332" cy="738" r="13" fill="#484848"/>
<circle cx="332" cy="506" r="13" fill="#484848"/>
<circle cx="890" cy="593" r="13" transform="rotate(-180 890 593)" fill="#484848"/>
<circle cx="890" cy="477" r="13" transform="rotate(-180 890 477)" fill="#484848"/>
<circle cx="890" cy="216" r="13" transform="rotate(-180 890 216)" fill="#484848"/>
<circle cx="890" cy="361" r="13" transform="rotate(-180 890 361)" fill="#484848"/>
<circle cx="890" cy="100" r="13" transform="rotate(-180 890 100)" fill="#484848"/>
<circle cx="890" cy="535" r="13" transform="rotate(-180 890 535)" fill="#484848"/>
<circle cx="890" cy="419" r="13" transform="rotate(-180 890 419)" fill="#484848"/>
<circle cx="890" cy="158" r="13" transform="rotate(-180 890 158)" fill="#484848"/>
<circle cx="890" cy="303" r="13" transform="rotate(-180 890 303)" fill="#484848"/>
<circle cx="890" cy="564" r="13" transform="rotate(-180 890 564)" fill="#484848"/>
<circle cx="890" cy="448" r="13" transform="rotate(-180 890 448)" fill="#484848"/>
<circle cx="890" cy="187" r="13" transform="rotate(-180 890 187)" fill="#484848"/>
<circle cx="890" cy="332" r="13" transform="rotate(-180 890 332)" fill="#484848"/>
<circle cx="890" cy="506" r="13" transform="rotate(-180 890 506)" fill="#484848"/>
<circle cx="890" cy="622" r="13" transform="rotate(-180 890 622)" fill="#484848"/>
<circle cx="890" cy="390" r="13" transform="rotate(-180 890 390)" fill="#484848"/>
<circle cx="890" cy="129" r="13" transform="rotate(-180 890 129)" fill="#484848"/>
<circle cx="890" cy="274" r="13" transform="rotate(-180 890 274)" fill="#484848"/>
<circle cx="890" cy="245" r="13" transform="rotate(-180 890 245)" fill="#484848"/>
<circle cx="455" cy="593" r="13" transform="rotate(-180 455 593)" fill="#484848"/>
<circle cx="774" cy="709" r="13" transform="rotate(-180 774 709)" fill="#484848"/>
<circle cx="774" cy="216" r="13" transform="rotate(-180 774 216)" fill="#484848"/>
<circle cx="455" cy="216" r="13" transform="rotate(-180 455 216)" fill="#484848"/>
<circle cx="774" cy="361" r="13" transform="rotate(-180 774 361)" fill="#484848"/>
<circle cx="774" cy="100" r="13" transform="rotate(-180 774 100)" fill="#484848"/>
<circle cx="455" cy="361" r="13" transform="rotate(-180 455 361)" fill="#484848"/>
<circle cx="455" cy="100" r="13" transform="rotate(-180 455 100)" fill="#484848"/>
<circle cx="455" cy="535" r="13" transform="rotate(-180 455 535)" fill="#484848"/>
<circle cx="774" cy="651" r="13" transform="rotate(-180 774 651)" fill="#484848"/>
<circle cx="455" cy="651" r="13" transform="rotate(-180 455 651)" fill="#484848"/>
<circle cx="774" cy="419" r="13" transform="rotate(-180 774 419)" fill="#484848"/>
<circle cx="774" cy="158" r="13" transform="rotate(-180 774 158)" fill="#484848"/>
<circle cx="455" cy="158" r="13" transform="rotate(-180 455 158)" fill="#484848"/>
<circle cx="774" cy="303" r="13" transform="rotate(-180 774 303)" fill="#484848"/>
<circle cx="774" cy="42" r="13" transform="rotate(-180 774 42)" fill="#484848"/>
<circle cx="455" cy="303" r="13" transform="rotate(-180 455 303)" fill="#484848"/>
<circle cx="455" cy="564" r="13" transform="rotate(-180 455 564)" fill="#484848"/>
<circle cx="774" cy="680" r="13" transform="rotate(-180 774 680)" fill="#484848"/>
<circle cx="774" cy="187" r="13" transform="rotate(-180 774 187)" fill="#484848"/>
<circle cx="455" cy="187" r="13" transform="rotate(-180 455 187)" fill="#484848"/>
<circle cx="774" cy="332" r="13" transform="rotate(-180 774 332)" fill="#484848"/>
<circle cx="774" cy="71" r="13" transform="rotate(-180 774 71)" fill="#484848"/>
<circle cx="455" cy="332" r="13" transform="rotate(-180 455 332)" fill="#484848"/>
<circle cx="774" cy="738" r="13" transform="rotate(-180 774 738)" fill="#484848"/>
<circle cx="774" cy="622" r="13" transform="rotate(-180 774 622)" fill="#484848"/>
<circle cx="455" cy="622" r="13" transform="rotate(-180 455 622)" fill="#484848"/>
<circle cx="774" cy="390" r="13" transform="rotate(-180 774 390)" fill="#484848"/>
<circle cx="774" cy="129" r="13" transform="rotate(-180 774 129)" fill="#484848"/>
<circle cx="455" cy="390" r="13" transform="rotate(-180 455 390)" fill="#484848"/>
<circle cx="455" cy="129" r="13" transform="rotate(-180 455 129)" fill="#484848"/>
<circle cx="774" cy="274" r="13" transform="rotate(-180 774 274)" fill="#484848"/>
<circle cx="774" cy="13" r="13" transform="rotate(-180 774 13)" fill="#484848"/>
<circle cx="455" cy="274" r="13" transform="rotate(-180 455 274)" fill="#484848"/>
<circle cx="774" cy="245" r="13" transform="rotate(-180 774 245)" fill="#484848"/>
<circle cx="455" cy="245" r="13" transform="rotate(-180 455 245)" fill="#484848"/>
<circle cx="629" cy="709" r="13" transform="rotate(-180 629 709)" fill="#484848"/>
<circle cx="629" cy="361" r="13" transform="rotate(-180 629 361)" fill="#484848"/>
<circle cx="629" cy="100" r="13" transform="rotate(-180 629 100)" fill="#484848"/>
<circle cx="629" cy="651" r="13" transform="rotate(-180 629 651)" fill="#484848"/>
<circle cx="629" cy="419" r="13" transform="rotate(-180 629 419)" fill="#484848"/>
<circle cx="629" cy="42" r="13" transform="rotate(-180 629 42)" fill="#484848"/>
<circle cx="629" cy="680" r="13" transform="rotate(-180 629 680)" fill="#484848"/>
<circle cx="629" cy="448" r="13" transform="rotate(-180 629 448)" fill="#484848"/>
<circle cx="629" cy="71" r="13" transform="rotate(-180 629 71)" fill="#484848"/>
<circle cx="629" cy="738" r="13" transform="rotate(-180 629 738)" fill="#484848"/>
<circle cx="629" cy="622" r="13" transform="rotate(-180 629 622)" fill="#484848"/>
<circle cx="629" cy="390" r="13" transform="rotate(-180 629 390)" fill="#484848"/>
<circle cx="629" cy="129" r="13" transform="rotate(-180 629 129)" fill="#484848"/>
<circle cx="629" cy="13" r="13" transform="rotate(-180 629 13)" fill="#484848"/>
<circle cx="832" cy="593" r="13" transform="rotate(-180 832 593)" fill="#484848"/>
<circle cx="513" cy="593" r="13" transform="rotate(-180 513 593)" fill="#484848"/>
<circle cx="513" cy="709" r="13" transform="rotate(-180 513 709)" fill="#484848"/>
<circle cx="832" cy="477" r="13" transform="rotate(-180 832 477)" fill="#484848"/>
<circle cx="832" cy="216" r="13" transform="rotate(-180 832 216)" fill="#484848"/>
<circle cx="513" cy="216" r="13" transform="rotate(-180 513 216)" fill="#484848"/>
<circle cx="832" cy="361" r="13" transform="rotate(-180 832 361)" fill="#484848"/>
<circle cx="832" cy="100" r="13" transform="rotate(-180 832 100)" fill="#484848"/>
<circle cx="513" cy="361" r="13" transform="rotate(-180 513 361)" fill="#484848"/>
<circle cx="513" cy="100" r="13" transform="rotate(-180 513 100)" fill="#484848"/>
<circle cx="832" cy="535" r="13" transform="rotate(-180 832 535)" fill="#484848"/>
<circle cx="513" cy="535" r="13" transform="rotate(-180 513 535)" fill="#484848"/>
<circle cx="832" cy="651" r="13" transform="rotate(-180 832 651)" fill="#484848"/>
<circle cx="513" cy="651" r="13" transform="rotate(-180 513 651)" fill="#484848"/>
<circle cx="832" cy="419" r="13" transform="rotate(-180 832 419)" fill="#484848"/>
<circle cx="832" cy="158" r="13" transform="rotate(-180 832 158)" fill="#484848"/>
<circle cx="513" cy="419" r="13" transform="rotate(-180 513 419)" fill="#484848"/>
<circle cx="513" cy="158" r="13" transform="rotate(-180 513 158)" fill="#484848"/>
<circle cx="832" cy="303" r="13" transform="rotate(-180 832 303)" fill="#484848"/>
<circle cx="832" cy="42" r="13" transform="rotate(-180 832 42)" fill="#484848"/>
<circle cx="513" cy="303" r="13" transform="rotate(-180 513 303)" fill="#484848"/>
<circle cx="513" cy="42" r="13" transform="rotate(-180 513 42)" fill="#484848"/>
<circle cx="832" cy="564" r="13" transform="rotate(-180 832 564)" fill="#484848"/>
<circle cx="513" cy="564" r="13" transform="rotate(-180 513 564)" fill="#484848"/>
<circle cx="832" cy="680" r="13" transform="rotate(-180 832 680)" fill="#484848"/>
<circle cx="513" cy="680" r="13" transform="rotate(-180 513 680)" fill="#484848"/>
<circle cx="832" cy="448" r="13" transform="rotate(-180 832 448)" fill="#484848"/>
<circle cx="832" cy="187" r="13" transform="rotate(-180 832 187)" fill="#484848"/>
<circle cx="513" cy="448" r="13" transform="rotate(-180 513 448)" fill="#484848"/>
<circle cx="513" cy="187" r="13" transform="rotate(-180 513 187)" fill="#484848"/>
<circle cx="832" cy="332" r="13" transform="rotate(-180 832 332)" fill="#484848"/>
<circle cx="832" cy="71" r="13" transform="rotate(-180 832 71)" fill="#484848"/>
<circle cx="513" cy="332" r="13" transform="rotate(-180 513 332)" fill="#484848"/>
<circle cx="513" cy="71" r="13" transform="rotate(-180 513 71)" fill="#484848"/>
<circle cx="832" cy="506" r="13" transform="rotate(-180 832 506)" fill="#484848"/>
<circle cx="832" cy="622" r="13" transform="rotate(-180 832 622)" fill="#484848"/>
<circle cx="513" cy="622" r="13" transform="rotate(-180 513 622)" fill="#484848"/>
<circle cx="832" cy="390" r="13" transform="rotate(-180 832 390)" fill="#484848"/>
<circle cx="832" cy="129" r="13" transform="rotate(-180 832 129)" fill="#484848"/>
<circle cx="513" cy="390" r="13" transform="rotate(-180 513 390)" fill="#484848"/>
<circle cx="513" cy="129" r="13" transform="rotate(-180 513 129)" fill="#484848"/>
<circle cx="832" cy="274" r="13" transform="rotate(-180 832 274)" fill="#484848"/>
<circle cx="513" cy="274" r="13" transform="rotate(-180 513 274)" fill="#484848"/>
<circle cx="832" cy="245" r="13" transform="rotate(-180 832 245)" fill="#484848"/>
<circle cx="513" cy="245" r="13" transform="rotate(-180 513 245)" fill="#484848"/>
<circle cx="716" cy="709" r="13" transform="rotate(-180 716 709)" fill="#484848"/>
<circle cx="716" cy="361" r="13" transform="rotate(-180 716 361)" fill="#484848"/>
<circle cx="716" cy="100" r="13" transform="rotate(-180 716 100)" fill="#484848"/>
<circle cx="716" cy="651" r="13" transform="rotate(-180 716 651)" fill="#484848"/>
<circle cx="716" cy="419" r="13" transform="rotate(-180 716 419)" fill="#484848"/>
<circle cx="716" cy="42" r="13" transform="rotate(-180 716 42)" fill="#484848"/>
<circle cx="716" cy="680" r="13" transform="rotate(-180 716 680)" fill="#484848"/>
<circle cx="716" cy="448" r="13" transform="rotate(-180 716 448)" fill="#484848"/>
<circle cx="716" cy="71" r="13" transform="rotate(-180 716 71)" fill="#484848"/>
<circle cx="716" cy="738" r="13" transform="rotate(-180 716 738)" fill="#484848"/>
<circle cx="716" cy="622" r="13" transform="rotate(-180 716 622)" fill="#484848"/>
<circle cx="716" cy="390" r="13" transform="rotate(-180 716 390)" fill="#484848"/>
<circle cx="716" cy="129" r="13" transform="rotate(-180 716 129)" fill="#484848"/>
<circle cx="716" cy="13" r="13" transform="rotate(-180 716 13)" fill="#484848"/>
<circle cx="571" cy="709" r="13" transform="rotate(-180 571 709)" fill="#484848"/>
<circle cx="571" cy="361" r="13" transform="rotate(-180 571 361)" fill="#484848"/>
<circle cx="571" cy="100" r="13" transform="rotate(-180 571 100)" fill="#484848"/>
<circle cx="571" cy="651" r="13" transform="rotate(-180 571 651)" fill="#484848"/>
<circle cx="571" cy="419" r="13" transform="rotate(-180 571 419)" fill="#484848"/>
<circle cx="571" cy="42" r="13" transform="rotate(-180 571 42)" fill="#484848"/>
<circle cx="571" cy="680" r="13" transform="rotate(-180 571 680)" fill="#484848"/>
<circle cx="571" cy="448" r="13" transform="rotate(-180 571 448)" fill="#484848"/>
<circle cx="571" cy="71" r="13" transform="rotate(-180 571 71)" fill="#484848"/>
<circle cx="571" cy="738" r="13" transform="rotate(-180 571 738)" fill="#484848"/>
<circle cx="571" cy="622" r="13" transform="rotate(-180 571 622)" fill="#484848"/>
<circle cx="571" cy="390" r="13" transform="rotate(-180 571 390)" fill="#484848"/>
<circle cx="571" cy="129" r="13" transform="rotate(-180 571 129)" fill="#484848"/>
<circle cx="571" cy="13" r="13" transform="rotate(-180 571 13)" fill="#484848"/>
<circle cx="861" cy="593" r="13" transform="rotate(-180 861 593)" fill="#484848"/>
<circle cx="861" cy="477" r="13" transform="rotate(-180 861 477)" fill="#484848"/>
<circle cx="861" cy="216" r="13" transform="rotate(-180 861 216)" fill="#484848"/>
<circle cx="861" cy="361" r="13" transform="rotate(-180 861 361)" fill="#484848"/>
<circle cx="861" cy="100" r="13" transform="rotate(-180 861 100)" fill="#484848"/>
<circle cx="861" cy="535" r="13" transform="rotate(-180 861 535)" fill="#484848"/>
<circle cx="861" cy="651" r="13" transform="rotate(-180 861 651)" fill="#484848"/>
<circle cx="861" cy="419" r="13" transform="rotate(-180 861 419)" fill="#484848"/>
<circle cx="861" cy="158" r="13" transform="rotate(-180 861 158)" fill="#484848"/>
<circle cx="861" cy="303" r="13" transform="rotate(-180 861 303)" fill="#484848"/>
<circle cx="861" cy="564" r="13" transform="rotate(-180 861 564)" fill="#484848"/>
<circle cx="861" cy="448" r="13" transform="rotate(-180 861 448)" fill="#484848"/>
<circle cx="861" cy="187" r="13" transform="rotate(-180 861 187)" fill="#484848"/>
<circle cx="861" cy="332" r="13" transform="rotate(-180 861 332)" fill="#484848"/>
<circle cx="861" cy="71" r="13" transform="rotate(-180 861 71)" fill="#484848"/>
<circle cx="861" cy="506" r="13" transform="rotate(-180 861 506)" fill="#484848"/>
<circle cx="861" cy="622" r="13" transform="rotate(-180 861 622)" fill="#484848"/>
<circle cx="861" cy="390" r="13" transform="rotate(-180 861 390)" fill="#484848"/>
<circle cx="861" cy="129" r="13" transform="rotate(-180 861 129)" fill="#484848"/>
<circle cx="861" cy="274" r="13" transform="rotate(-180 861 274)" fill="#484848"/>
<circle cx="861" cy="245" r="13" transform="rotate(-180 861 245)" fill="#484848"/>
<circle cx="426" cy="593" r="13" transform="rotate(-180 426 593)" fill="#484848"/>
<circle cx="745" cy="709" r="13" transform="rotate(-180 745 709)" fill="#484848"/>
<circle cx="426" cy="216" r="13" transform="rotate(-180 426 216)" fill="#484848"/>
<circle cx="745" cy="361" r="13" transform="rotate(-180 745 361)" fill="#484848"/>
<circle cx="745" cy="100" r="13" transform="rotate(-180 745 100)" fill="#484848"/>
<circle cx="426" cy="361" r="13" transform="rotate(-180 426 361)" fill="#484848"/>
<circle cx="426" cy="535" r="13" transform="rotate(-180 426 535)" fill="#484848"/>
<circle cx="745" cy="651" r="13" transform="rotate(-180 745 651)" fill="#484848"/>
<circle cx="745" cy="419" r="13" transform="rotate(-180 745 419)" fill="#484848"/>
<circle cx="426" cy="158" r="13" transform="rotate(-180 426 158)" fill="#484848"/>
<circle cx="745" cy="42" r="13" transform="rotate(-180 745 42)" fill="#484848"/>
<circle cx="426" cy="303" r="13" transform="rotate(-180 426 303)" fill="#484848"/>
<circle cx="426" cy="564" r="13" transform="rotate(-180 426 564)" fill="#484848"/>
<circle cx="745" cy="680" r="13" transform="rotate(-180 745 680)" fill="#484848"/>
<circle cx="745" cy="448" r="13" transform="rotate(-180 745 448)" fill="#484848"/>
<circle cx="426" cy="187" r="13" transform="rotate(-180 426 187)" fill="#484848"/>
<circle cx="745" cy="71" r="13" transform="rotate(-180 745 71)" fill="#484848"/>
<circle cx="426" cy="332" r="13" transform="rotate(-180 426 332)" fill="#484848"/>
<circle cx="745" cy="738" r="13" transform="rotate(-180 745 738)" fill="#484848"/>
<circle cx="745" cy="622" r="13" transform="rotate(-180 745 622)" fill="#484848"/>
<circle cx="426" cy="622" r="13" transform="rotate(-180 426 622)" fill="#484848"/>
<circle cx="745" cy="390" r="13" transform="rotate(-180 745 390)" fill="#484848"/>
<circle cx="745" cy="129" r="13" transform="rotate(-180 745 129)" fill="#484848"/>
<circle cx="426" cy="129" r="13" transform="rotate(-180 426 129)" fill="#484848"/>
<circle cx="745" cy="13" r="13" transform="rotate(-180 745 13)" fill="#484848"/>
<circle cx="426" cy="274" r="13" transform="rotate(-180 426 274)" fill="#484848"/>
<circle cx="426" cy="245" r="13" transform="rotate(-180 426 245)" fill="#484848"/>
<circle cx="600" cy="709" r="13" transform="rotate(-180 600 709)" fill="#484848"/>
<circle cx="600" cy="361" r="13" transform="rotate(-180 600 361)" fill="#484848"/>
<circle cx="600" cy="100" r="13" transform="rotate(-180 600 100)" fill="#484848"/>
<circle cx="600" cy="651" r="13" transform="rotate(-180 600 651)" fill="#484848"/>
<circle cx="600" cy="419" r="13" transform="rotate(-180 600 419)" fill="#484848"/>
<circle cx="600" cy="42" r="13" transform="rotate(-180 600 42)" fill="#484848"/>
<circle cx="600" cy="680" r="13" transform="rotate(-180 600 680)" fill="#484848"/>
<circle cx="600" cy="448" r="13" transform="rotate(-180 600 448)" fill="#484848"/>
<circle cx="600" cy="71" r="13" transform="rotate(-180 600 71)" fill="#484848"/>
<circle cx="600" cy="738" r="13" transform="rotate(-180 600 738)" fill="#484848"/>
<circle cx="600" cy="622" r="13" transform="rotate(-180 600 622)" fill="#484848"/>
<circle cx="600" cy="390" r="13" transform="rotate(-180 600 390)" fill="#484848"/>
<circle cx="600" cy="129" r="13" transform="rotate(-180 600 129)" fill="#484848"/>
<circle cx="600" cy="13" r="13" transform="rotate(-180 600 13)" fill="#484848"/>
<circle cx="803" cy="593" r="13" transform="rotate(-180 803 593)" fill="#484848"/>
<circle cx="484" cy="593" r="13" transform="rotate(-180 484 593)" fill="#484848"/>
<circle cx="803" cy="709" r="13" transform="rotate(-180 803 709)" fill="#484848"/>
<circle cx="803" cy="477" r="13" transform="rotate(-180 803 477)" fill="#484848"/>
<circle cx="803" cy="216" r="13" transform="rotate(-180 803 216)" fill="#484848"/>
<circle cx="484" cy="216" r="13" transform="rotate(-180 484 216)" fill="#484848"/>
<circle cx="803" cy="361" r="13" transform="rotate(-180 803 361)" fill="#484848"/>
<circle cx="803" cy="100" r="13" transform="rotate(-180 803 100)" fill="#484848"/>
<circle cx="484" cy="361" r="13" transform="rotate(-180 484 361)" fill="#484848"/>
<circle cx="484" cy="100" r="13" transform="rotate(-180 484 100)" fill="#484848"/>
<circle cx="803" cy="535" r="13" transform="rotate(-180 803 535)" fill="#484848"/>
<circle cx="484" cy="535" r="13" transform="rotate(-180 484 535)" fill="#484848"/>
<circle cx="803" cy="651" r="13" transform="rotate(-180 803 651)" fill="#484848"/>
<circle cx="484" cy="651" r="13" transform="rotate(-180 484 651)" fill="#484848"/>
<circle cx="803" cy="419" r="13" transform="rotate(-180 803 419)" fill="#484848"/>
<circle cx="803" cy="158" r="13" transform="rotate(-180 803 158)" fill="#484848"/>
<circle cx="484" cy="419" r="13" transform="rotate(-180 484 419)" fill="#484848"/>
<circle cx="484" cy="158" r="13" transform="rotate(-180 484 158)" fill="#484848"/>
<circle cx="803" cy="303" r="13" transform="rotate(-180 803 303)" fill="#484848"/>
<circle cx="803" cy="42" r="13" transform="rotate(-180 803 42)" fill="#484848"/>
<circle cx="484" cy="303" r="13" transform="rotate(-180 484 303)" fill="#484848"/>
<circle cx="803" cy="564" r="13" transform="rotate(-180 803 564)" fill="#484848"/>
<circle cx="484" cy="564" r="13" transform="rotate(-180 484 564)" fill="#484848"/>
<circle cx="803" cy="680" r="13" transform="rotate(-180 803 680)" fill="#484848"/>
<circle cx="484" cy="680" r="13" transform="rotate(-180 484 680)" fill="#484848"/>
<circle cx="803" cy="448" r="13" transform="rotate(-180 803 448)" fill="#484848"/>
<circle cx="803" cy="187" r="13" transform="rotate(-180 803 187)" fill="#484848"/>
<circle cx="484" cy="187" r="13" transform="rotate(-180 484 187)" fill="#484848"/>
<circle cx="803" cy="332" r="13" transform="rotate(-180 803 332)" fill="#484848"/>
<circle cx="803" cy="71" r="13" transform="rotate(-180 803 71)" fill="#484848"/>
<circle cx="484" cy="332" r="13" transform="rotate(-180 484 332)" fill="#484848"/>
<circle cx="484" cy="71" r="13" transform="rotate(-180 484 71)" fill="#484848"/>
<circle cx="803" cy="506" r="13" transform="rotate(-180 803 506)" fill="#484848"/>
<circle cx="803" cy="622" r="13" transform="rotate(-180 803 622)" fill="#484848"/>
<circle cx="484" cy="622" r="13" transform="rotate(-180 484 622)" fill="#484848"/>
<circle cx="803" cy="390" r="13" transform="rotate(-180 803 390)" fill="#484848"/>
<circle cx="803" cy="129" r="13" transform="rotate(-180 803 129)" fill="#484848"/>
<circle cx="484" cy="390" r="13" transform="rotate(-180 484 390)" fill="#484848"/>
<circle cx="484" cy="129" r="13" transform="rotate(-180 484 129)" fill="#484848"/>
<circle cx="803" cy="274" r="13" transform="rotate(-180 803 274)" fill="#484848"/>
<circle cx="803" cy="13" r="13" transform="rotate(-180 803 13)" fill="#484848"/>
<circle cx="484" cy="274" r="13" transform="rotate(-180 484 274)" fill="#484848"/>
<circle cx="803" cy="245" r="13" transform="rotate(-180 803 245)" fill="#484848"/>
<circle cx="484" cy="245" r="13" transform="rotate(-180 484 245)" fill="#484848"/>
<circle cx="658" cy="709" r="13" transform="rotate(-180 658 709)" fill="#484848"/>
<circle cx="658" cy="361" r="13" transform="rotate(-180 658 361)" fill="#484848"/>
<circle cx="658" cy="100" r="13" transform="rotate(-180 658 100)" fill="#484848"/>
<circle cx="658" cy="651" r="13" transform="rotate(-180 658 651)" fill="#484848"/>
<circle cx="658" cy="419" r="13" transform="rotate(-180 658 419)" fill="#484848"/>
<circle cx="658" cy="42" r="13" transform="rotate(-180 658 42)" fill="#484848"/>
<circle cx="658" cy="680" r="13" transform="rotate(-180 658 680)" fill="#484848"/>
<circle cx="658" cy="448" r="13" transform="rotate(-180 658 448)" fill="#484848"/>
<circle cx="658" cy="71" r="13" transform="rotate(-180 658 71)" fill="#484848"/>
<circle cx="658" cy="738" r="13" transform="rotate(-180 658 738)" fill="#484848"/>
<circle cx="658" cy="622" r="13" transform="rotate(-180 658 622)" fill="#484848"/>
<circle cx="658" cy="390" r="13" transform="rotate(-180 658 390)" fill="#484848"/>
<circle cx="658" cy="129" r="13" transform="rotate(-180 658 129)" fill="#484848"/>
<circle cx="658" cy="13" r="13" transform="rotate(-180 658 13)" fill="#484848"/>
<circle cx="919" cy="593" r="13" transform="rotate(-180 919 593)" fill="#484848"/>
<circle cx="919" cy="477" r="13" transform="rotate(-180 919 477)" fill="#484848"/>
<circle cx="919" cy="216" r="13" transform="rotate(-180 919 216)" fill="#484848"/>
<circle cx="919" cy="361" r="13" transform="rotate(-180 919 361)" fill="#484848"/>
<circle cx="919" cy="535" r="13" transform="rotate(-180 919 535)" fill="#484848"/>
<circle cx="919" cy="419" r="13" transform="rotate(-180 919 419)" fill="#484848"/>
<circle cx="919" cy="158" r="13" transform="rotate(-180 919 158)" fill="#484848"/>
<circle cx="919" cy="303" r="13" transform="rotate(-180 919 303)" fill="#484848"/>
<circle cx="919" cy="564" r="13" transform="rotate(-180 919 564)" fill="#484848"/>
<circle cx="919" cy="448" r="13" transform="rotate(-180 919 448)" fill="#484848"/>
<circle cx="919" cy="187" r="13" transform="rotate(-180 919 187)" fill="#484848"/>
<circle cx="919" cy="332" r="13" transform="rotate(-180 919 332)" fill="#484848"/>
<circle cx="919" cy="506" r="13" transform="rotate(-180 919 506)" fill="#484848"/>
<circle cx="919" cy="390" r="13" transform="rotate(-180 919 390)" fill="#484848"/>
<circle cx="919" cy="129" r="13" transform="rotate(-180 919 129)" fill="#484848"/>
<circle cx="919" cy="274" r="13" transform="rotate(-180 919 274)" fill="#484848"/>
<circle cx="919" cy="245" r="13" transform="rotate(-180 919 245)" fill="#484848"/>
<circle cx="687" cy="709" r="13" transform="rotate(-180 687 709)" fill="#484848"/>
<circle cx="687" cy="361" r="13" transform="rotate(-180 687 361)" fill="#484848"/>
<circle cx="687" cy="100" r="13" transform="rotate(-180 687 100)" fill="#484848"/>
<circle cx="687" cy="651" r="13" transform="rotate(-180 687 651)" fill="#484848"/>
<circle cx="687" cy="419" r="13" transform="rotate(-180 687 419)" fill="#484848"/>
<circle cx="687" cy="42" r="13" transform="rotate(-180 687 42)" fill="#484848"/>
<circle cx="687" cy="680" r="13" transform="rotate(-180 687 680)" fill="#484848"/>
<circle cx="687" cy="448" r="13" transform="rotate(-180 687 448)" fill="#484848"/>
<circle cx="687" cy="71" r="13" transform="rotate(-180 687 71)" fill="#484848"/>
<circle cx="687" cy="738" r="13" transform="rotate(-180 687 738)" fill="#484848"/>
<circle cx="687" cy="622" r="13" transform="rotate(-180 687 622)" fill="#484848"/>
<circle cx="687" cy="390" r="13" transform="rotate(-180 687 390)" fill="#484848"/>
<circle cx="687" cy="129" r="13" transform="rotate(-180 687 129)" fill="#484848"/>
<circle cx="687" cy="13" r="13" transform="rotate(-180 687 13)" fill="#484848"/>
<circle cx="542" cy="593" r="13" transform="rotate(-180 542 593)" fill="#484848"/>
<circle cx="542" cy="709" r="13" transform="rotate(-180 542 709)" fill="#484848"/>
<circle cx="542" cy="216" r="13" transform="rotate(-180 542 216)" fill="#484848"/>
<circle cx="542" cy="361" r="13" transform="rotate(-180 542 361)" fill="#484848"/>
<circle cx="542" cy="100" r="13" transform="rotate(-180 542 100)" fill="#484848"/>
<circle cx="542" cy="535" r="13" transform="rotate(-180 542 535)" fill="#484848"/>
<circle cx="542" cy="651" r="13" transform="rotate(-180 542 651)" fill="#484848"/>
<circle cx="542" cy="419" r="13" transform="rotate(-180 542 419)" fill="#484848"/>
<circle cx="542" cy="158" r="13" transform="rotate(-180 542 158)" fill="#484848"/>
<circle cx="542" cy="303" r="13" transform="rotate(-180 542 303)" fill="#484848"/>
<circle cx="542" cy="42" r="13" transform="rotate(-180 542 42)" fill="#484848"/>
<circle cx="542" cy="564" r="13" transform="rotate(-180 542 564)" fill="#484848"/>
<circle cx="542" cy="680" r="13" transform="rotate(-180 542 680)" fill="#484848"/>
<circle cx="542" cy="448" r="13" transform="rotate(-180 542 448)" fill="#484848"/>
<circle cx="542" cy="187" r="13" transform="rotate(-180 542 187)" fill="#484848"/>
<circle cx="542" cy="332" r="13" transform="rotate(-180 542 332)" fill="#484848"/>
<circle cx="542" cy="71" r="13" transform="rotate(-180 542 71)" fill="#484848"/>
<circle cx="542" cy="738" r="13" transform="rotate(-180 542 738)" fill="#484848"/>
<circle cx="542" cy="622" r="13" transform="rotate(-180 542 622)" fill="#484848"/>
<circle cx="542" cy="390" r="13" transform="rotate(-180 542 390)" fill="#484848"/>
<circle cx="542" cy="129" r="13" transform="rotate(-180 542 129)" fill="#484848"/>
<circle cx="542" cy="274" r="13" transform="rotate(-180 542 274)" fill="#484848"/>
<circle cx="542" cy="245" r="13" transform="rotate(-180 542 245)" fill="#484848"/>
</svg>
